<svg xmlns="http://www.w3.org/2000/svg" viewBox="0 0 200 200" fill="none">
  <rect width="200" height="200" rx="40" fill="#F4BA45"/>
  <g transform="translate(100, 85)">
    <!-- Ribbon badge outer -->
    <circle cx="0" cy="0" r="50" fill="white"/>
    <circle cx="0" cy="0" r="38" fill="none" stroke="#F4BA45" stroke-width="5"/>
    <!-- Badge spikes -->
    <path d="M0,-58 L7,-50 L0,-55 L-7,-50 Z" fill="white"/>
    <path d="M0,-58 L7,-50 L0,-55 L-7,-50 Z" fill="white" transform="rotate(30)"/>
    <path d="M0,-58 L7,-50 L0,-55 L-7,-50 Z" fill="white" transform="rotate(60)"/>
    <path d="M0,-58 L7,-50 L0,-55 L-7,-50 Z" fill="white" transform="rotate(90)"/>
    <path d="M0,-58 L7,-50 L0,-55 L-7,-50 Z" fill="white" transform="rotate(120)"/>
    <path d="M0,-58 L7,-50 L0,-55 L-7,-50 Z" fill="white" transform="rotate(150)"/>
    <path d="M0,-58 L7,-50 L0,-55 L-7,-50 Z" fill="white" transform="rotate(180)"/>
    <path d="M0,-58 L7,-50 L0,-55 L-7,-50 Z" fill="white" transform="rotate(210)"/>
    <path d="M0,-58 L7,-50 L0,-55 L-7,-50 Z" fill="white" transform="rotate(240)"/>
    <path d="M0,-58 L7,-50 L0,-55 L-7,-50 Z" fill="white" transform="rotate(270)"/>
    <path d="M0,-58 L7,-50 L0,-55 L-7,-50 Z" fill="white" transform="rotate(300)"/>
    <path d="M0,-58 L7,-50 L0,-55 L-7,-50 Z" fill="white" transform="rotate(330)"/>
  </g>
  <!-- Ribbons -->
  <path d="M80,140 L75,185 L90,170 L100,190 L105,140" fill="white"/>
  <path d="M95,140 L100,190 L110,170 L125,185 L120,140" fill="white"/>
</svg>
